<?xml version="1.0" encoding="UTF-8" standalone="no"?><!DOCTYPE svg PUBLIC "-//W3C//DTD SVG 1.1//EN" "http://www.w3.org/Graphics/SVG/1.1/DTD/svg11.dtd"><svg width="100%" height="100%" viewBox="0 0 123 120" version="1.1" xmlns="http://www.w3.org/2000/svg" xmlns:xlink="http://www.w3.org/1999/xlink" xml:space="preserve" xmlns:serif="http://www.serif.com/" style="fill-rule:evenodd;clip-rule:evenodd;stroke-linejoin:round;stroke-miterlimit:1.41421;"><path d="M61.4,1c-33.354,0 -60.4,27.036 -60.4,60.391c0,26.682 17.306,49.319 41.305,57.305c3.019,0.559 4.127,-1.311 4.127,-2.906c0,-1.439 -0.056,-6.197 -0.082,-11.243c-16.803,3.653 -20.349,-7.126 -20.349,-7.126c-2.748,-6.979 -6.706,-8.836 -6.706,-8.836c-5.48,-3.748 0.413,-3.671 0.413,-3.671c6.065,0.426 9.259,6.224 9.259,6.224c5.387,9.231 14.129,6.562 17.576,5.019c0.543,-3.902 2.107,-6.567 3.835,-8.075c-13.416,-1.526 -27.519,-6.706 -27.519,-29.846c0,-6.592 2.36,-11.981 6.224,-16.21c-0.628,-1.521 -2.695,-7.663 0.586,-15.982c0,0 5.072,-1.622 16.613,6.192c4.818,-1.338 9.985,-2.009 15.118,-2.033c5.133,0.024 10.304,0.695 15.131,2.033c11.528,-7.814 16.593,-6.192 16.593,-6.192c3.288,8.319 1.221,14.461 0.593,15.982c3.873,4.229 6.216,9.618 6.216,16.21c0,23.196 -14.13,28.303 -27.58,29.798c2.167,1.874 4.097,5.549 4.097,11.183c0,8.081 -0.069,14.584 -0.069,16.573c0,1.608 1.086,3.491 4.148,2.899c23.987,-7.995 41.271,-30.624 41.271,-57.298c0,-33.355 -27.042,-60.391 -60.4,-60.391" style="fill:#181717;"/></svg>